# xmcd CD database file
#
# Track frame offsets:
#	150
#	19857
#	38267
#
# Disc length: 724 seconds
#
# Revision: 0
# Processed by: cddbd v1.5.1PL2 Copyright (c) Steve Scherf et al.
# Submitted via: CD2WAV32(JP) R3.22
#
DISCID=1402d203
DTITLE=山本サヤカ - 牡丹雪の降る街
DYEAR=2005
DGENRE=JPop
TTITLE0=牡丹雪の降る街
TTITLE1=星空の下の時計台
TTITLE2=雪山の白い使い
EXTD=
EXTT0=
EXTT1=
EXTT2=
PLAYORDER=
